<?xml version="1.0" encoding="UTF-8" standalone="no"?>
<!DOCTYPE svg PUBLIC "-//W3C//DTD SVG 1.1//EN" "http://www.w3.org/Graphics/SVG/1.1/DTD/svg11.dtd">
<svg width="100%" height="100%" viewBox="0 0 3024 3024" version="1.1" xmlns="http://www.w3.org/2000/svg" xmlns:xlink="http://www.w3.org/1999/xlink" xml:space="preserve" xmlns:serif="http://www.serif.com/" style="fill-rule:evenodd;clip-rule:evenodd;stroke-linecap:square;stroke-miterlimit:1.5;">
    <g transform="matrix(1.6988,0,0,1.6988,-1072.94,-776.843)">
        <path d="M1521.51,512.909L2244.04,930.062L2244.04,1764.37L1521.51,2181.52L798.982,1764.37L798.982,930.062L1521.51,512.909Z" style="fill:white;"/>
        <path d="M2244.04,930.062L2244.04,1764.37L1521.51,2181.52L798.982,1764.37L798.982,930.062L1521.51,512.909L2244.04,930.062ZM938.05,1010.35L938.05,1684.08L1521.51,2020.94L2104.97,1684.08L2104.97,1010.35L1521.51,673.491L938.05,1010.35Z"/>
    </g>
    <g transform="matrix(1.2741,0,0,1.2741,-426.753,-204.679)">
        <path d="M2244.04,930.062L2244.04,1764.37L1521.51,2181.52L798.982,1764.37L798.982,930.062L1521.51,512.909L2244.04,930.062ZM910.223,994.287L910.223,1700.14L1521.51,2053.07L2132.8,1700.14L2132.8,994.287L1521.51,641.358L910.223,994.287Z" style="fill-opacity:0.9;"/>
    </g>
    <g transform="matrix(0.707107,-0.707107,0.707107,0.707107,-380.101,1624.3)">
        <g>
            <g>
                <g transform="matrix(1.14744,0,0,1.69328,-129.392,759.563)">
                    <rect x="869.326" y="533.438" width="957.281" height="83.664" style="fill:white;"/>
                    <rect x="869.326" y="533.438" width="957.281" height="83.664"/>
                </g>
                <g transform="matrix(0.573721,-1.11704e-32,1.87992e-16,1.83524,369.359,677.9)">
                    <rect x="869.326" y="533.438" width="957.281" height="83.664" style="fill:white;"/>
                </g>
                <g transform="matrix(0.0822127,-0.0822127,2.14285,2.14285,23.4945,553.555)">
                    <rect x="869.326" y="533.438" width="957.281" height="83.664"/>
                </g>
                <g transform="matrix(0.573721,1.11022e-16,3.33067e-16,1.83524,572.976,530.245)">
                    <rect x="869.326" y="533.438" width="957.281" height="83.664" style="fill:white;"/>
                </g>
                <g transform="matrix(7.02606e-17,-1.14744,1.69328,1.03683e-16,-35.1487,2801.99)">
                    <rect x="869.326" y="533.438" width="957.281" height="83.664"/>
                </g>
                <g transform="matrix(7.02606e-17,-1.14744,1.69328,1.03683e-16,921.61,2801.99)">
                    <rect x="869.326" y="533.438" width="957.281" height="83.664"/>
                </g>
                <g transform="matrix(1.14744,0,0,1.69328,-129.392,-197.195)">
                    <rect x="869.326" y="533.438" width="957.281" height="83.664"/>
                </g>
                <g transform="matrix(0.172277,-0.172277,0.489563,0.489563,548.758,1702.43)">
                    <rect x="869.326" y="533.438" width="957.281" height="83.664" style="fill:white;"/>
                </g>
            </g>
            <g transform="matrix(0.99093,-0.99093,1.19733,1.19733,-607.205,1902.23)">
                <rect x="869.326" y="533.438" width="957.281" height="83.664"/>
            </g>
            <g transform="matrix(0.512475,0.512475,-1.19733,1.19733,1186.3,-353.318)">
                <rect x="869.326" y="533.438" width="957.281" height="83.664"/>
            </g>
            <g transform="matrix(0.386271,0.386271,-1.19733,1.19733,1890.09,108.667)">
                <rect x="869.326" y="533.438" width="957.281" height="83.664"/>
            </g>
            <g transform="matrix(0.375939,0.375939,-1.19733,1.19733,1657.04,360.399)">
                <rect x="869.326" y="533.438" width="957.281" height="83.664"/>
            </g>
            <g transform="matrix(0.557972,-1.11022e-16,1.11022e-16,0.557972,641.543,426.242)">
                <rect x="1137.29" y="1232.73" width="506.141" height="506.141" style="fill:white;stroke:black;stroke-width:253.9px;"/>
            </g>
        </g>
    </g>
</svg>
