<?xml version="1.0" encoding="UTF-8" standalone="no"?>
<!DOCTYPE svg PUBLIC "-//W3C//DTD SVG 1.1//EN" "http://www.w3.org/Graphics/SVG/1.1/DTD/svg11.dtd">
<svg width="100%" height="100%" viewBox="0 0 355 99" version="1.1" xmlns="http://www.w3.org/2000/svg" xmlns:xlink="http://www.w3.org/1999/xlink" xml:space="preserve" xmlns:serif="http://www.serif.com/" style="fill-rule:evenodd;clip-rule:evenodd;stroke-linecap:round;stroke-linejoin:round;stroke-miterlimit:1.41421;">
    <g transform="matrix(0.188208,-1.60017e-17,-7.44474e-18,0.411043,52.1688,-19.5447)">
        <rect x="272.447" y="164.776" width="627.551" height="6.735"/>
    </g>
    <g transform="matrix(0.188208,-1.60017e-17,-7.44474e-18,0.411043,58.0631,24.1873)">
        <rect x="272.447" y="164.776" width="627.551" height="6.735"/>
    </g>
    <g transform="matrix(1,0,0,1,-237.553,-28.7264)">
        <g transform="matrix(24.05,0,0,65,334.286,79.6735)">
            <rect x="0" y="-0.043" width="0.264" height="0.043" style="fill-rule:nonzero;"/>
        </g>
        <g transform="matrix(65,0,0,65,340.635,79.6735)">
            <path d="M0.608,-0.043L0.608,0L0,0L0,-0.043L0.226,-0.043L0.226,-0.564L0.028,-0.564L0.028,-0.699L0.58,-0.699L0.58,-0.564L0.382,-0.564L0.382,-0.043L0.608,-0.043Z" style="fill-rule:nonzero;"/>
        </g>
        <g transform="matrix(7.8,0,0,65,380.155,79.6735)">
            <rect x="0" y="-0.043" width="0.264" height="0.043" style="fill-rule:nonzero;"/>
        </g>
        <g transform="matrix(65,0,0,65,382.214,79.6735)">
            <path d="M0.086,-0.043L0.086,-0.699L0.351,-0.699C0.46,-0.699 0.537,-0.681 0.584,-0.644C0.63,-0.607 0.653,-0.548 0.653,-0.467C0.653,-0.355 0.609,-0.283 0.52,-0.25L0.666,-0.043L0.76,-0.043L0.76,0L0.505,0L0.35,-0.223L0.242,-0.223L0.242,0L-0.011,0L-0.011,-0.043L0.086,-0.043ZM0.356,-0.358C0.409,-0.358 0.446,-0.367 0.465,-0.384C0.484,-0.401 0.494,-0.429 0.494,-0.467C0.494,-0.504 0.484,-0.53 0.464,-0.544C0.444,-0.558 0.409,-0.565 0.359,-0.565L0.242,-0.565L0.242,-0.358L0.356,-0.358Z" style="fill-rule:nonzero;"/>
        </g>
        <g transform="matrix(0.65,0,0,65,429.469,79.6735)">
            <rect x="0" y="-0.043" width="0.264" height="0.043" style="fill-rule:nonzero;"/>
        </g>
        <g transform="matrix(65,0,0,65,429.641,79.6735)">
            <path d="M0.328,-0.043L0.328,0L0,0L0,-0.043L0.086,-0.043L0.086,-0.699L0.242,-0.699L0.242,-0.043L0.328,-0.043Z" style="fill-rule:nonzero;"/>
        </g>
        <g transform="matrix(0.65,0,0,65,450.961,79.6735)">
            <rect x="0" y="-0.043" width="0.264" height="0.043" style="fill-rule:nonzero;"/>
        </g>
        <g transform="matrix(65,0,0,65,451.132,79.6735)">
            <path d="M0.847,-0.043L0.847,0L0.584,0L0.519,-0.151L0.226,-0.151L0.161,0L-0.102,0L-0.102,-0.043L0.013,-0.043L0.297,-0.699L0.448,-0.699L0.731,-0.043L0.847,-0.043ZM0.373,-0.491L0.285,-0.288L0.46,-0.288L0.373,-0.491Z" style="fill-rule:nonzero;"/>
        </g>
        <g transform="matrix(0.65,0,0,65,499.557,79.6735)">
            <rect x="0" y="-0.043" width="0.264" height="0.043" style="fill-rule:nonzero;"/>
        </g>
        <g transform="matrix(65,0,0,65,499.729,79.6735)">
            <path d="M0.637,-0.043L0.637,0L-0.011,0L-0.011,-0.043L0.086,-0.043L0.086,-0.699L0.242,-0.699L0.242,-0.139L0.54,-0.139L0.54,-0.043L0.637,-0.043Z" style="fill-rule:nonzero;"/>
        </g>
        <g transform="matrix(0.65,0,0,65,536.649,79.6735)">
            <rect x="0" y="-0.043" width="0.264" height="0.043" style="fill-rule:nonzero;"/>
        </g>
        <g transform="matrix(65,0,0,65,536.821,79.6735)">
            <path d="M0.7,-0.043L0.7,0L0,0L0,-0.043L0.126,-0.043C0.073,-0.08 0.047,-0.131 0.047,-0.196C0.047,-0.275 0.096,-0.342 0.194,-0.398C0.151,-0.443 0.13,-0.491 0.13,-0.54C0.13,-0.589 0.149,-0.631 0.188,-0.665C0.227,-0.698 0.28,-0.715 0.347,-0.715C0.397,-0.715 0.442,-0.7 0.482,-0.672C0.521,-0.643 0.541,-0.602 0.541,-0.55C0.541,-0.485 0.493,-0.424 0.398,-0.368C0.428,-0.33 0.455,-0.298 0.478,-0.273C0.495,-0.3 0.507,-0.33 0.514,-0.364L0.627,-0.29C0.612,-0.248 0.593,-0.209 0.571,-0.173L0.657,-0.088L0.609,-0.043L0.7,-0.043ZM0.192,-0.199C0.192,-0.178 0.201,-0.161 0.218,-0.148C0.235,-0.134 0.258,-0.127 0.286,-0.127C0.313,-0.127 0.345,-0.145 0.382,-0.18C0.339,-0.225 0.303,-0.266 0.273,-0.301C0.25,-0.29 0.23,-0.275 0.215,-0.258C0.2,-0.24 0.192,-0.22 0.192,-0.199ZM0.338,-0.597C0.323,-0.597 0.31,-0.592 0.299,-0.582C0.287,-0.571 0.281,-0.557 0.281,-0.54C0.281,-0.522 0.294,-0.496 0.321,-0.463C0.371,-0.49 0.396,-0.515 0.396,-0.538C0.396,-0.557 0.39,-0.572 0.378,-0.582C0.366,-0.592 0.353,-0.597 0.338,-0.597ZM0.471,-0.083C0.448,-0.064 0.427,-0.051 0.408,-0.043L0.51,-0.043L0.471,-0.083Z" style="fill-rule:nonzero;"/>
        </g>
        <g transform="matrix(24.05,0,0,65,582.321,79.6735)">
            <rect x="0" y="-0.043" width="0.264" height="0.043" style="fill-rule:nonzero;"/>
        </g>
        <g transform="matrix(24.05,0,0,65,334.286,123.423)">
            <rect x="0" y="-0.043" width="0.264" height="0.043" style="fill-rule:nonzero;"/>
        </g>
        <g transform="matrix(65,0,0,65,340.635,123.423)">
            <path d="M0.638,-0.043L0.638,0L0,0L0,-0.043L0.136,-0.043C0.099,-0.062 0.066,-0.086 0.036,-0.115L0.129,-0.229C0.204,-0.163 0.274,-0.13 0.338,-0.13C0.367,-0.13 0.389,-0.136 0.406,-0.149C0.422,-0.161 0.43,-0.178 0.43,-0.199C0.43,-0.22 0.421,-0.236 0.404,-0.249C0.387,-0.261 0.352,-0.273 0.301,-0.286C0.22,-0.305 0.16,-0.331 0.123,-0.362C0.085,-0.393 0.066,-0.441 0.066,-0.508C0.066,-0.574 0.09,-0.625 0.138,-0.661C0.185,-0.697 0.245,-0.715 0.316,-0.715C0.363,-0.715 0.409,-0.707 0.456,-0.691C0.503,-0.675 0.543,-0.652 0.578,-0.623L0.499,-0.509C0.438,-0.555 0.376,-0.578 0.311,-0.578C0.285,-0.578 0.265,-0.572 0.25,-0.56C0.235,-0.547 0.227,-0.531 0.227,-0.511C0.227,-0.49 0.236,-0.474 0.255,-0.462C0.273,-0.45 0.315,-0.436 0.382,-0.42C0.448,-0.403 0.499,-0.379 0.536,-0.346C0.573,-0.313 0.591,-0.268 0.591,-0.21C0.591,-0.138 0.564,-0.082 0.51,-0.043L0.638,-0.043Z" style="fill-rule:nonzero;"/>
        </g>
        <g transform="matrix(0.65,0,0,65,382.105,123.423)">
            <rect x="0" y="-0.043" width="0.264" height="0.043" style="fill-rule:nonzero;"/>
        </g>
        <g transform="matrix(65,0,0,65,382.277,123.423)">
            <path d="M0.677,-0.043L0.677,0L-0.011,0L-0.011,-0.043L0.086,-0.043L0.086,-0.699L0.333,-0.699C0.44,-0.699 0.519,-0.678 0.568,-0.637C0.616,-0.595 0.641,-0.531 0.641,-0.445C0.641,-0.358 0.616,-0.295 0.566,-0.255C0.515,-0.215 0.438,-0.195 0.335,-0.195L0.242,-0.195L0.242,-0.043L0.677,-0.043ZM0.347,-0.33C0.399,-0.33 0.434,-0.341 0.453,-0.362C0.472,-0.383 0.481,-0.413 0.481,-0.454C0.481,-0.494 0.469,-0.523 0.445,-0.54C0.42,-0.557 0.382,-0.565 0.331,-0.565L0.242,-0.565L0.242,-0.33L0.347,-0.33Z" style="fill-rule:nonzero;"/>
        </g>
        <g transform="matrix(13,0,0,65,426.282,123.423)">
            <rect x="0" y="-0.043" width="0.264" height="0.043" style="fill-rule:nonzero;"/>
        </g>
        <g transform="matrix(65,0,0,65,429.714,123.423)">
            <path d="M0.328,-0.043L0.328,0L0,0L0,-0.043L0.086,-0.043L0.086,-0.699L0.242,-0.699L0.242,-0.043L0.328,-0.043Z" style="fill-rule:nonzero;"/>
        </g>
        <g transform="matrix(0.65,0,0,65,451.034,123.423)">
            <rect x="0" y="-0.043" width="0.264" height="0.043" style="fill-rule:nonzero;"/>
        </g>
        <g transform="matrix(65,0,0,65,451.205,123.423)">
            <path d="M0.086,-0.043L0.086,-0.699L0.351,-0.699C0.46,-0.699 0.537,-0.681 0.584,-0.644C0.63,-0.607 0.653,-0.548 0.653,-0.467C0.653,-0.355 0.609,-0.283 0.52,-0.25L0.666,-0.043L0.76,-0.043L0.76,0L0.505,0L0.35,-0.223L0.242,-0.223L0.242,0L-0.011,0L-0.011,-0.043L0.086,-0.043ZM0.356,-0.358C0.409,-0.358 0.446,-0.367 0.465,-0.384C0.484,-0.401 0.494,-0.429 0.494,-0.467C0.494,-0.504 0.484,-0.53 0.464,-0.544C0.444,-0.558 0.409,-0.565 0.359,-0.565L0.242,-0.565L0.242,-0.358L0.356,-0.358Z" style="fill-rule:nonzero;"/>
        </g>
        <g transform="matrix(0.65,0,0,65,498.46,123.423)">
            <rect x="0" y="-0.043" width="0.264" height="0.043" style="fill-rule:nonzero;"/>
        </g>
        <g transform="matrix(65,0,0,65,498.632,123.423)">
            <path d="M0.847,-0.043L0.847,0L0.584,0L0.519,-0.151L0.226,-0.151L0.161,0L-0.102,0L-0.102,-0.043L0.013,-0.043L0.297,-0.699L0.448,-0.699L0.731,-0.043L0.847,-0.043ZM0.373,-0.491L0.285,-0.288L0.46,-0.288L0.373,-0.491Z" style="fill-rule:nonzero;"/>
        </g>
        <g transform="matrix(0.65,0,0,65,547.057,123.423)">
            <rect x="0" y="-0.043" width="0.264" height="0.043" style="fill-rule:nonzero;"/>
        </g>
        <g transform="matrix(65,0,0,65,547.228,123.423)">
            <path d="M0.637,-0.043L0.637,0L-0.011,0L-0.011,-0.043L0.086,-0.043L0.086,-0.699L0.242,-0.699L0.242,-0.139L0.54,-0.139L0.54,-0.043L0.637,-0.043Z" style="fill-rule:nonzero;"/>
        </g>
    </g>
    <g transform="matrix(1.38603,-1.00557e-16,-1.42889e-16,1.38596,-10.2316,-11.1183)">
        <g transform="matrix(0.0257068,1.86513e-18,2.6503e-18,0.0257079,3.99724,5.9077)">
            <circle cx="1537.18" cy="1462.9" r="1342.53" style="fill:white;"/>
        </g>
        <g id="レイヤ1" transform="matrix(0.939717,-3.0622e-21,4.3511e-21,0.939759,2.62061,2.61848)">
            <circle cx="43.472" cy="43.467" r="33.502" style="fill:white;"/>
            <path d="M43.472,9.008C62.503,9.008 77.931,24.436 77.931,43.467C77.931,62.498 62.503,77.926 43.472,77.926C24.44,77.926 9.013,62.498 9.013,43.467C9.013,24.436 24.44,9.008 43.472,9.008L43.472,9.008ZM43.472,12.119C60.785,12.119 74.82,26.154 74.82,43.467C74.82,60.78 60.785,74.815 43.472,74.815C26.158,74.815 12.123,60.78 12.123,43.467C12.123,26.154 26.158,12.119 43.472,12.119L43.472,12.119Z"/>
            <g>
                <circle cx="43.463" cy="43.466" r="25.725"/>
                <path d="M43.463,14.961L43.422,14.961C36.344,14.986 30.613,21.354 30.613,29.205C30.613,37.073 36.367,43.45 43.463,43.45L43.463,43.503C50.561,43.503 56.314,49.881 56.314,57.748C56.314,65.615 50.561,71.993 43.463,71.993" style="fill:none;stroke:white;stroke-width:5.74px;"/>
                <path d="M67.923,29.353L19.02,57.6L67.923,29.353" style="fill:none;stroke:white;stroke-width:5.74px;"/>
                <path d="M59.537,20.547L33.896,35.357L59.537,20.547" style="stroke:white;stroke-width:5.74px;"/>
            </g>
        </g>
    </g>
    <g transform="matrix(0.646145,0,0,0.646145,-63.6746,0.835247)">
        <g transform="matrix(0.027231,0,0,0.027231,134.19,35.0041)">
            <circle cx="1537.18" cy="1462.9" r="1342.53" style="fill:white;"/>
        </g>
        <g transform="matrix(0.0410803,0,0,0.0410803,113.545,19.4963)">
            <path d="M1521.51,512.909L2244.04,930.062L2244.04,1764.37L1521.51,2181.52L798.982,1764.37L798.982,930.062L1521.51,512.909Z" style="fill:white;"/>
            <path d="M2244.04,930.062L2244.04,1764.37L1521.51,2181.52L798.982,1764.37L798.982,930.062L1521.51,512.909L2244.04,930.062ZM938.05,1010.35L938.05,1684.08L1521.51,2020.94L2104.97,1684.08L2104.97,1010.35L1521.51,673.491L938.05,1010.35Z"/>
        </g>
        <g transform="matrix(0.0308102,0,0,0.0308102,129.171,33.3323)">
            <path d="M2244.04,930.062L2244.04,1764.37L1521.51,2181.52L798.982,1764.37L798.982,930.062L1521.51,512.909L2244.04,930.062ZM910.223,994.287L910.223,1700.14L1521.51,2053.07L2132.8,1700.14L2132.8,994.287L1521.51,641.358L910.223,994.287Z" style="fill-opacity:0.9;"/>
        </g>
        <g transform="matrix(0.0170992,-0.0170992,0.0170992,0.0170992,130.299,77.5603)">
            <g>
                <g>
                    <g transform="matrix(1.14744,0,0,1.69328,-129.392,759.563)">
                        <rect x="869.326" y="533.438" width="957.281" height="83.664" style="fill:white;"/>
                        <rect x="869.326" y="533.438" width="957.281" height="83.664"/>
                    </g>
                    <g transform="matrix(0.573721,-1.11704e-32,1.87992e-16,1.83524,369.359,677.9)">
                        <rect x="869.326" y="533.438" width="957.281" height="83.664" style="fill:white;"/>
                    </g>
                    <g transform="matrix(0.0822127,-0.0822127,2.14285,2.14285,23.4945,553.555)">
                        <rect x="869.326" y="533.438" width="957.281" height="83.664"/>
                    </g>
                    <g transform="matrix(0.573721,1.11022e-16,3.33067e-16,1.83524,572.976,530.245)">
                        <rect x="869.326" y="533.438" width="957.281" height="83.664" style="fill:white;"/>
                    </g>
                    <g transform="matrix(7.02606e-17,-1.14744,1.69328,1.03683e-16,-35.1487,2801.99)">
                        <rect x="869.326" y="533.438" width="957.281" height="83.664"/>
                    </g>
                    <g transform="matrix(7.02606e-17,-1.14744,1.69328,1.03683e-16,921.61,2801.99)">
                        <rect x="869.326" y="533.438" width="957.281" height="83.664"/>
                    </g>
                    <g transform="matrix(1.14744,0,0,1.69328,-129.392,-197.195)">
                        <rect x="869.326" y="533.438" width="957.281" height="83.664"/>
                    </g>
                    <g transform="matrix(0.172277,-0.172277,0.489563,0.489563,548.758,1702.43)">
                        <rect x="869.326" y="533.438" width="957.281" height="83.664" style="fill:white;"/>
                    </g>
                </g>
                <g transform="matrix(0.99093,-0.99093,1.19733,1.19733,-607.205,1902.23)">
                    <rect x="869.326" y="533.438" width="957.281" height="83.664"/>
                </g>
                <g transform="matrix(0.512475,0.512475,-1.19733,1.19733,1186.3,-353.318)">
                    <rect x="869.326" y="533.438" width="957.281" height="83.664"/>
                </g>
                <g transform="matrix(0.386271,0.386271,-1.19733,1.19733,1890.09,108.667)">
                    <rect x="869.326" y="533.438" width="957.281" height="83.664"/>
                </g>
                <g transform="matrix(0.375939,0.375939,-1.19733,1.19733,1657.04,360.399)">
                    <rect x="869.326" y="533.438" width="957.281" height="83.664"/>
                </g>
                <g transform="matrix(0.557972,-1.11022e-16,1.11022e-16,0.557972,641.543,426.242)">
                    <rect x="1137.29" y="1232.73" width="506.141" height="506.141" style="fill:white;stroke:black;stroke-width:253.9px;stroke-linecap:square;stroke-linejoin:miter;stroke-miterlimit:1.5;"/>
                </g>
            </g>
        </g>
    </g>
</svg>
