<?xml version="1.0" encoding="UTF-8" standalone="no"?>
<!DOCTYPE svg PUBLIC "-//W3C//DTD SVG 1.1//EN" "http://www.w3.org/Graphics/SVG/1.1/DTD/svg11.dtd">
<svg width="100%" height="100%" viewBox="0 0 1435 459" version="1.1" xmlns="http://www.w3.org/2000/svg" xmlns:xlink="http://www.w3.org/1999/xlink" xml:space="preserve" xmlns:serif="http://www.serif.com/" style="fill-rule:evenodd;clip-rule:evenodd;stroke-linecap:round;stroke-linejoin:round;stroke-miterlimit:1.41421;">
    <g id="アートボード1" transform="matrix(0.894922,0,0,0.790503,2.43547,8.01326)">
        <rect x="-2.721" y="-10.137" width="1602.86" height="580.045" style="fill:none;"/>
        <clipPath id="_clip1">
            <rect x="-2.721" y="-10.137" width="1602.86" height="580.045"/>
        </clipPath>
        <g clip-path="url(#_clip1)">
            <g transform="matrix(2.52381,-5.9019e-17,-9.98315e-17,1.51604,-679.29,173.409)">
                <rect x="272.447" y="164.776" width="627.551" height="6.735" style="fill:rgb(127,127,127);"/>
            </g>
            <g transform="matrix(0.61317,-5.9019e-17,-2.42545e-17,1.51604,482.649,-92.4069)">
                <rect x="272.447" y="164.776" width="627.551" height="6.735" style="fill:white;"/>
            </g>
            <g transform="matrix(0.61317,-5.9019e-17,-2.42545e-17,1.51604,501.852,68.8892)">
                <rect x="272.447" y="164.776" width="627.551" height="6.735" style="fill:white;"/>
            </g>
            <g transform="matrix(3.25794,0,0,3.68828,-463.357,-126.271)">
                <g transform="matrix(24.05,0,0,65,334.286,79.6735)">
                    <rect x="0" y="-0.043" width="0.264" height="0.043" style="fill-rule:nonzero;"/>
                </g>
                <g transform="matrix(65,0,0,65,340.635,79.6735)">
                    <path d="M0.608,-0.043L0.608,0L0,0L0,-0.043L0.226,-0.043L0.226,-0.564L0.028,-0.564L0.028,-0.699L0.58,-0.699L0.58,-0.564L0.382,-0.564L0.382,-0.043L0.608,-0.043Z" style="fill-rule:nonzero;"/>
                </g>
                <g transform="matrix(7.8,0,0,65,380.155,79.6735)">
                    <rect x="0" y="-0.043" width="0.264" height="0.043" style="fill-rule:nonzero;"/>
                </g>
                <g transform="matrix(65,0,0,65,382.214,79.6735)">
                    <path d="M0.086,-0.043L0.086,-0.699L0.351,-0.699C0.46,-0.699 0.537,-0.681 0.584,-0.644C0.63,-0.607 0.653,-0.548 0.653,-0.467C0.653,-0.355 0.609,-0.283 0.52,-0.25L0.666,-0.043L0.76,-0.043L0.76,0L0.505,0L0.35,-0.223L0.242,-0.223L0.242,0L-0.011,0L-0.011,-0.043L0.086,-0.043ZM0.356,-0.358C0.409,-0.358 0.446,-0.367 0.465,-0.384C0.484,-0.401 0.494,-0.429 0.494,-0.467C0.494,-0.504 0.484,-0.53 0.464,-0.544C0.444,-0.558 0.409,-0.565 0.359,-0.565L0.242,-0.565L0.242,-0.358L0.356,-0.358Z" style="fill-rule:nonzero;"/>
                </g>
                <g transform="matrix(0.65,0,0,65,429.469,79.6735)">
                    <rect x="0" y="-0.043" width="0.264" height="0.043" style="fill-rule:nonzero;"/>
                </g>
                <g transform="matrix(65,0,0,65,429.641,79.6735)">
                    <path d="M0.328,-0.043L0.328,0L0,0L0,-0.043L0.086,-0.043L0.086,-0.699L0.242,-0.699L0.242,-0.043L0.328,-0.043Z" style="fill-rule:nonzero;"/>
                </g>
                <g transform="matrix(0.65,0,0,65,450.961,79.6735)">
                    <rect x="0" y="-0.043" width="0.264" height="0.043" style="fill-rule:nonzero;"/>
                </g>
                <g transform="matrix(65,0,0,65,451.132,79.6735)">
                    <path d="M0.847,-0.043L0.847,0L0.584,0L0.519,-0.151L0.226,-0.151L0.161,0L-0.102,0L-0.102,-0.043L0.013,-0.043L0.297,-0.699L0.448,-0.699L0.731,-0.043L0.847,-0.043ZM0.373,-0.491L0.285,-0.288L0.46,-0.288L0.373,-0.491Z" style="fill-rule:nonzero;"/>
                </g>
                <g transform="matrix(0.65,0,0,65,499.557,79.6735)">
                    <rect x="0" y="-0.043" width="0.264" height="0.043" style="fill-rule:nonzero;"/>
                </g>
                <g transform="matrix(65,0,0,65,499.729,79.6735)">
                    <path d="M0.637,-0.043L0.637,0L-0.011,0L-0.011,-0.043L0.086,-0.043L0.086,-0.699L0.242,-0.699L0.242,-0.139L0.54,-0.139L0.54,-0.043L0.637,-0.043Z" style="fill-rule:nonzero;"/>
                </g>
                <g transform="matrix(0.65,0,0,65,536.649,79.6735)">
                    <rect x="0" y="-0.043" width="0.264" height="0.043" style="fill-rule:nonzero;"/>
                </g>
                <g transform="matrix(65,0,0,65,536.821,79.6735)">
                    <path d="M0.7,-0.043L0.7,0L0,0L0,-0.043L0.126,-0.043C0.073,-0.08 0.047,-0.131 0.047,-0.196C0.047,-0.275 0.096,-0.342 0.194,-0.398C0.151,-0.443 0.13,-0.491 0.13,-0.54C0.13,-0.589 0.149,-0.631 0.188,-0.665C0.227,-0.698 0.28,-0.715 0.347,-0.715C0.397,-0.715 0.442,-0.7 0.482,-0.672C0.521,-0.643 0.541,-0.602 0.541,-0.55C0.541,-0.485 0.493,-0.424 0.398,-0.368C0.428,-0.33 0.455,-0.298 0.478,-0.273C0.495,-0.3 0.507,-0.33 0.514,-0.364L0.627,-0.29C0.612,-0.248 0.593,-0.209 0.571,-0.173L0.657,-0.088L0.609,-0.043L0.7,-0.043ZM0.192,-0.199C0.192,-0.178 0.201,-0.161 0.218,-0.148C0.235,-0.134 0.258,-0.127 0.286,-0.127C0.313,-0.127 0.345,-0.145 0.382,-0.18C0.339,-0.225 0.303,-0.266 0.273,-0.301C0.25,-0.29 0.23,-0.275 0.215,-0.258C0.2,-0.24 0.192,-0.22 0.192,-0.199ZM0.338,-0.597C0.323,-0.597 0.31,-0.592 0.299,-0.582C0.287,-0.571 0.281,-0.557 0.281,-0.54C0.281,-0.522 0.294,-0.496 0.321,-0.463C0.371,-0.49 0.396,-0.515 0.396,-0.538C0.396,-0.557 0.39,-0.572 0.378,-0.582C0.366,-0.592 0.353,-0.597 0.338,-0.597ZM0.471,-0.083C0.448,-0.064 0.427,-0.051 0.408,-0.043L0.51,-0.043L0.471,-0.083Z" style="fill-rule:nonzero;"/>
                </g>
                <g transform="matrix(24.05,0,0,65,582.321,79.6735)">
                    <rect x="0" y="-0.043" width="0.264" height="0.043" style="fill-rule:nonzero;"/>
                </g>
                <g transform="matrix(24.05,0,0,65,334.286,123.423)">
                    <rect x="0" y="-0.043" width="0.264" height="0.043" style="fill-rule:nonzero;"/>
                </g>
                <g transform="matrix(65,0,0,65,340.635,123.423)">
                    <path d="M0.638,-0.043L0.638,0L0,0L0,-0.043L0.136,-0.043C0.099,-0.062 0.066,-0.086 0.036,-0.115L0.129,-0.229C0.204,-0.163 0.274,-0.13 0.338,-0.13C0.367,-0.13 0.389,-0.136 0.406,-0.149C0.422,-0.161 0.43,-0.178 0.43,-0.199C0.43,-0.22 0.421,-0.236 0.404,-0.249C0.387,-0.261 0.352,-0.273 0.301,-0.286C0.22,-0.305 0.16,-0.331 0.123,-0.362C0.085,-0.393 0.066,-0.441 0.066,-0.508C0.066,-0.574 0.09,-0.625 0.138,-0.661C0.185,-0.697 0.245,-0.715 0.316,-0.715C0.363,-0.715 0.409,-0.707 0.456,-0.691C0.503,-0.675 0.543,-0.652 0.578,-0.623L0.499,-0.509C0.438,-0.555 0.376,-0.578 0.311,-0.578C0.285,-0.578 0.265,-0.572 0.25,-0.56C0.235,-0.547 0.227,-0.531 0.227,-0.511C0.227,-0.49 0.236,-0.474 0.255,-0.462C0.273,-0.45 0.315,-0.436 0.382,-0.42C0.448,-0.403 0.499,-0.379 0.536,-0.346C0.573,-0.313 0.591,-0.268 0.591,-0.21C0.591,-0.138 0.564,-0.082 0.51,-0.043L0.638,-0.043Z" style="fill-rule:nonzero;"/>
                </g>
                <g transform="matrix(0.65,0,0,65,382.105,123.423)">
                    <rect x="0" y="-0.043" width="0.264" height="0.043" style="fill-rule:nonzero;"/>
                </g>
                <g transform="matrix(65,0,0,65,382.277,123.423)">
                    <path d="M0.677,-0.043L0.677,0L-0.011,0L-0.011,-0.043L0.086,-0.043L0.086,-0.699L0.333,-0.699C0.44,-0.699 0.519,-0.678 0.568,-0.637C0.616,-0.595 0.641,-0.531 0.641,-0.445C0.641,-0.358 0.616,-0.295 0.566,-0.255C0.515,-0.215 0.438,-0.195 0.335,-0.195L0.242,-0.195L0.242,-0.043L0.677,-0.043ZM0.347,-0.33C0.399,-0.33 0.434,-0.341 0.453,-0.362C0.472,-0.383 0.481,-0.413 0.481,-0.454C0.481,-0.494 0.469,-0.523 0.445,-0.54C0.42,-0.557 0.382,-0.565 0.331,-0.565L0.242,-0.565L0.242,-0.33L0.347,-0.33Z" style="fill-rule:nonzero;"/>
                </g>
                <g transform="matrix(13,0,0,65,426.282,123.423)">
                    <rect x="0" y="-0.043" width="0.264" height="0.043" style="fill-rule:nonzero;"/>
                </g>
                <g transform="matrix(65,0,0,65,429.714,123.423)">
                    <path d="M0.328,-0.043L0.328,0L0,0L0,-0.043L0.086,-0.043L0.086,-0.699L0.242,-0.699L0.242,-0.043L0.328,-0.043Z" style="fill-rule:nonzero;"/>
                </g>
                <g transform="matrix(0.65,0,0,65,451.034,123.423)">
                    <rect x="0" y="-0.043" width="0.264" height="0.043" style="fill-rule:nonzero;"/>
                </g>
                <g transform="matrix(65,0,0,65,451.205,123.423)">
                    <path d="M0.086,-0.043L0.086,-0.699L0.351,-0.699C0.46,-0.699 0.537,-0.681 0.584,-0.644C0.63,-0.607 0.653,-0.548 0.653,-0.467C0.653,-0.355 0.609,-0.283 0.52,-0.25L0.666,-0.043L0.76,-0.043L0.76,0L0.505,0L0.35,-0.223L0.242,-0.223L0.242,0L-0.011,0L-0.011,-0.043L0.086,-0.043ZM0.356,-0.358C0.409,-0.358 0.446,-0.367 0.465,-0.384C0.484,-0.401 0.494,-0.429 0.494,-0.467C0.494,-0.504 0.484,-0.53 0.464,-0.544C0.444,-0.558 0.409,-0.565 0.359,-0.565L0.242,-0.565L0.242,-0.358L0.356,-0.358Z" style="fill-rule:nonzero;"/>
                </g>
                <g transform="matrix(0.65,0,0,65,498.46,123.423)">
                    <rect x="0" y="-0.043" width="0.264" height="0.043" style="fill-rule:nonzero;"/>
                </g>
                <g transform="matrix(65,0,0,65,498.632,123.423)">
                    <path d="M0.847,-0.043L0.847,0L0.584,0L0.519,-0.151L0.226,-0.151L0.161,0L-0.102,0L-0.102,-0.043L0.013,-0.043L0.297,-0.699L0.448,-0.699L0.731,-0.043L0.847,-0.043ZM0.373,-0.491L0.285,-0.288L0.46,-0.288L0.373,-0.491Z" style="fill-rule:nonzero;"/>
                </g>
                <g transform="matrix(0.65,0,0,65,547.057,123.423)">
                    <rect x="0" y="-0.043" width="0.264" height="0.043" style="fill-rule:nonzero;"/>
                </g>
                <g transform="matrix(65,0,0,65,547.228,123.423)">
                    <path d="M0.637,-0.043L0.637,0L-0.011,0L-0.011,-0.043L0.086,-0.043L0.086,-0.699L0.242,-0.699L0.242,-0.139L0.54,-0.139L0.54,-0.043L0.637,-0.043Z" style="fill-rule:nonzero;"/>
                </g>
            </g>
            <g transform="matrix(4.51558,-3.70884e-16,-4.65524e-16,5.11183,46.551,-61.3278)">
                <g transform="matrix(0.0257068,1.86513e-18,2.6503e-18,0.0257079,3.99724,5.9077)">
                    <circle cx="1537.18" cy="1462.9" r="1342.53" style="fill:white;"/>
                </g>
                <g id="レイヤ1" transform="matrix(0.939717,-3.0622e-21,4.3511e-21,0.939759,2.62061,2.61848)">
                    <circle cx="43.472" cy="43.467" r="33.502" style="fill:white;"/>
                    <path d="M43.472,9.008C62.503,9.008 77.931,24.436 77.931,43.467C77.931,62.498 62.503,77.926 43.472,77.926C24.44,77.926 9.013,62.498 9.013,43.467C9.013,24.436 24.44,9.008 43.472,9.008L43.472,9.008ZM43.472,12.119C60.785,12.119 74.82,26.154 74.82,43.467C74.82,60.78 60.785,74.815 43.472,74.815C26.158,74.815 12.123,60.78 12.123,43.467C12.123,26.154 26.158,12.119 43.472,12.119L43.472,12.119Z"/>
                    <g>
                        <circle cx="43.463" cy="43.466" r="25.725"/>
                        <path d="M43.463,14.961L43.422,14.961C36.344,14.986 30.613,21.354 30.613,29.205C30.613,37.073 36.367,43.45 43.463,43.45L43.463,43.503C50.561,43.503 56.314,49.881 56.314,57.748C56.314,65.615 50.561,71.993 43.463,71.993" style="fill:none;stroke:white;stroke-width:5.74px;"/>
                        <path d="M67.923,29.353L19.02,57.6L67.923,29.353" style="fill:none;stroke:white;stroke-width:5.74px;"/>
                        <path d="M59.537,20.547L33.896,35.357L59.537,20.547" style="stroke:white;stroke-width:5.74px;"/>
                    </g>
                </g>
            </g>
            <g transform="matrix(3.25794,0,0,3.68828,-22.3857,531.305)">
                <g transform="matrix(27.625,0,0,27.625,114.742,4.40453)">
                    <path d="M0.367,-0.826L0.074,-0.826L0.074,-0.718L0.367,-0.718L0.367,-0.826ZM0.395,-0.689L0.025,-0.689L0.025,-0.576L0.395,-0.576L0.395,-0.689ZM0.251,-0.154L0.251,-0.069L0.186,-0.069L0.186,-0.154L0.251,-0.154ZM0.371,-0.267L0.068,-0.267L0.068,0.08L0.186,0.08L0.186,0.044L0.371,0.044L0.371,-0.267ZM0.071,-0.3L0.373,-0.3L0.373,-0.408L0.071,-0.408L0.071,-0.3ZM0.071,-0.438L0.373,-0.438L0.373,-0.546L0.071,-0.546L0.071,-0.438ZM0.609,-0.122L0.609,-0.324L0.674,-0.324L0.674,-0.447L0.403,-0.447L0.403,-0.324L0.475,-0.324L0.475,-0.102C0.442,-0.098 0.411,-0.093 0.384,-0.09L0.412,0.042C0.499,0.025 0.606,0.004 0.706,-0.017L0.697,-0.136L0.609,-0.122ZM0.817,-0.671L0.817,-0.78C0.842,-0.744 0.867,-0.701 0.879,-0.671L0.817,-0.671ZM0.963,-0.54L0.963,-0.671L0.887,-0.671L0.984,-0.723C0.97,-0.758 0.936,-0.807 0.907,-0.843L0.817,-0.798L0.818,-0.855L0.68,-0.855C0.68,-0.791 0.681,-0.729 0.682,-0.671L0.409,-0.671L0.409,-0.54L0.685,-0.54C0.699,-0.137 0.74,0.092 0.867,0.095C0.906,0.096 0.965,0.063 0.994,-0.113C0.973,-0.127 0.915,-0.169 0.894,-0.201C0.891,-0.128 0.885,-0.086 0.874,-0.086C0.847,-0.088 0.826,-0.278 0.82,-0.54L0.963,-0.54Z" style="fill-rule:nonzero;"/>
                </g>
                <g transform="matrix(27.625,0,0,27.625,143.61,4.40453)">
                    <path d="M0.94,-0.8L0.453,-0.8L0.453,-0.662L0.94,-0.662L0.94,-0.8ZM0.247,-0.855C0.2,-0.786 0.104,-0.695 0.021,-0.643C0.046,-0.614 0.083,-0.556 0.101,-0.523C0.2,-0.591 0.311,-0.698 0.387,-0.797L0.247,-0.855ZM0.284,-0.635C0.22,-0.522 0.111,-0.406 0.01,-0.336C0.039,-0.306 0.088,-0.24 0.108,-0.209C0.129,-0.226 0.15,-0.246 0.172,-0.266L0.172,0.095L0.318,0.095L0.318,-0.43C0.357,-0.48 0.393,-0.532 0.422,-0.582L0.284,-0.635ZM0.965,-0.522L0.411,-0.522L0.411,-0.384L0.685,-0.384L0.685,-0.072C0.685,-0.058 0.679,-0.054 0.661,-0.054C0.643,-0.054 0.577,-0.054 0.528,-0.057C0.547,-0.015 0.566,0.049 0.571,0.092C0.656,0.092 0.723,0.09 0.771,0.068C0.821,0.046 0.834,0.006 0.834,-0.068L0.834,-0.384L0.965,-0.384L0.965,-0.522Z" style="fill-rule:nonzero;"/>
                </g>
                <g transform="matrix(27.625,0,0,27.625,172.478,4.40453)">
                    <path d="M0.785,-0.249L0.785,-0.209L0.617,-0.209L0.617,-0.249L0.785,-0.249ZM0.617,-0.06L0.617,-0.104L0.785,-0.104L0.785,-0.06L0.617,-0.06ZM0.486,0.094L0.617,0.094L0.617,0.058L0.785,0.058L0.785,0.094L0.923,0.094L0.923,-0.363L0.486,-0.363L0.486,0.094ZM0.661,-0.618L0.733,-0.618L0.733,-0.529L0.661,-0.529L0.661,-0.618ZM0.178,-0.606C0.209,-0.644 0.234,-0.682 0.255,-0.717C0.289,-0.684 0.323,-0.642 0.348,-0.606L0.178,-0.606ZM0.866,-0.529L0.866,-0.618L0.953,-0.618L0.953,-0.739L0.866,-0.739L0.866,-0.855L0.733,-0.855L0.733,-0.739L0.661,-0.739L0.661,-0.855L0.53,-0.855L0.53,-0.739L0.453,-0.739L0.453,-0.698C0.413,-0.749 0.346,-0.811 0.292,-0.855L0.176,-0.855C0.146,-0.778 0.091,-0.688 0.01,-0.619C0.034,-0.602 0.069,-0.563 0.09,-0.533L0.09,-0.486L0.173,-0.486L0.173,-0.431L0.049,-0.431L0.049,-0.309L0.173,-0.309L0.173,-0.143C0.166,-0.186 0.153,-0.239 0.14,-0.282L0.048,-0.258C0.062,-0.205 0.076,-0.136 0.079,-0.09L0.173,-0.117L0.173,-0.068C0.122,-0.062 0.075,-0.056 0.036,-0.051L0.064,0.079C0.171,0.062 0.311,0.04 0.44,0.017L0.433,-0.105C0.388,-0.098 0.343,-0.092 0.298,-0.086L0.298,-0.128L0.381,-0.105C0.396,-0.145 0.414,-0.207 0.434,-0.265L0.327,-0.29C0.322,-0.245 0.31,-0.181 0.298,-0.137L0.298,-0.309L0.419,-0.309L0.419,-0.431L0.298,-0.431L0.298,-0.486L0.392,-0.486L0.392,-0.591L0.453,-0.664L0.453,-0.618L0.53,-0.618L0.53,-0.529L0.426,-0.529L0.426,-0.405L0.976,-0.405L0.976,-0.529L0.866,-0.529Z" style="fill-rule:nonzero;"/>
                </g>
                <g transform="matrix(27.625,0,0,27.625,201.346,4.40453)">
                    <path d="M0.801,-0.633L0.722,-0.633L0.722,-0.709L0.801,-0.709L0.801,-0.633ZM0.934,-0.827L0.597,-0.827L0.597,-0.514L0.934,-0.514L0.934,-0.827ZM0.352,-0.826L0.077,-0.826L0.077,-0.718L0.352,-0.718L0.352,-0.826ZM0.39,-0.689L0.025,-0.689L0.025,-0.576L0.39,-0.576L0.39,-0.689ZM0.355,-0.546L0.071,-0.546L0.071,-0.438L0.355,-0.438L0.355,-0.546ZM0.071,-0.3L0.355,-0.3L0.355,-0.408L0.071,-0.408L0.071,-0.3ZM0.24,-0.155L0.24,-0.07L0.184,-0.07L0.184,-0.155L0.24,-0.155ZM0.358,-0.267L0.067,-0.267L0.067,0.08L0.184,0.08L0.184,0.042L0.358,0.042L0.358,-0.267ZM0.978,-0.148L0.978,-0.277L0.909,-0.277L0.909,-0.471L0.554,-0.471L0.554,-0.747L0.423,-0.747L0.423,-0.31L0.554,-0.31L0.554,-0.347L0.767,-0.347L0.767,-0.277L0.392,-0.277L0.392,-0.148L0.533,-0.148C0.493,-0.095 0.429,-0.031 0.368,0.002C0.402,0.026 0.448,0.067 0.473,0.094C0.544,0.051 0.627,-0.029 0.673,-0.096L0.584,-0.148L0.804,-0.148L0.712,-0.098C0.767,-0.04 0.833,0.041 0.86,0.094L0.989,0.021C0.96,-0.028 0.899,-0.096 0.847,-0.148L0.978,-0.148Z" style="fill-rule:nonzero;"/>
                </g>
                <g transform="matrix(27.625,0,0,27.625,230.214,4.40453)">
                    <path d="M0.346,-0.535L0.189,-0.535L0.189,-0.565L0.346,-0.565L0.346,-0.535ZM0.346,-0.43L0.189,-0.43L0.189,-0.461L0.346,-0.461L0.346,-0.43ZM0.346,-0.324L0.189,-0.324L0.189,-0.356L0.346,-0.356L0.346,-0.324ZM0.202,-0.644L0.074,-0.644L0.074,-0.245L0.467,-0.245L0.467,-0.644L0.335,-0.644L0.335,-0.675L0.49,-0.675L0.49,-0.784L0.335,-0.784L0.335,-0.854L0.202,-0.854L0.202,-0.784L0.044,-0.784L0.044,-0.675L0.202,-0.675L0.202,-0.644ZM0.814,-0.493L0.649,-0.493L0.649,-0.535L0.814,-0.535L0.814,-0.493ZM0.814,-0.352L0.649,-0.352L0.649,-0.394L0.814,-0.394L0.814,-0.352ZM0.814,-0.211L0.649,-0.211L0.649,-0.253L0.814,-0.253L0.814,-0.211ZM0.944,-0.105L0.944,-0.641L0.786,-0.641C0.792,-0.659 0.798,-0.678 0.804,-0.698L0.963,-0.698L0.963,-0.819L0.503,-0.819L0.503,-0.698L0.66,-0.698C0.658,-0.679 0.656,-0.66 0.653,-0.641L0.525,-0.641L0.525,-0.105L0.593,-0.105C0.565,-0.079 0.527,-0.05 0.488,-0.026C0.466,-0.05 0.436,-0.077 0.409,-0.1L0.506,-0.1L0.506,-0.215L0.024,-0.215L0.024,-0.1L0.136,-0.1C0.102,-0.061 0.053,-0.018 0.009,0.007C0.038,0.031 0.078,0.069 0.1,0.095C0.157,0.062 0.226,0.001 0.267,-0.05L0.19,-0.1L0.358,-0.1L0.289,-0.05C0.329,-0.012 0.383,0.041 0.406,0.075L0.458,0.035C0.482,0.056 0.506,0.08 0.521,0.097C0.588,0.066 0.673,0.007 0.723,-0.044L0.631,-0.105L0.834,-0.105L0.739,-0.043C0.786,-0.001 0.849,0.059 0.878,0.097L0.99,0.02C0.96,-0.016 0.9,-0.067 0.854,-0.105L0.944,-0.105Z" style="fill-rule:nonzero;"/>
                </g>
                <g transform="matrix(27.625,0,0,27.625,259.082,4.40453)">
                    <path d="M0.902,-0.317L0.902,-0.46L0.577,-0.46L0.577,-0.566L0.945,-0.566L0.945,-0.711L0.577,-0.711L0.577,-0.855L0.422,-0.855L0.422,-0.711L0.062,-0.711L0.062,-0.566L0.422,-0.566L0.422,-0.46L0.105,-0.46L0.105,-0.317L0.353,-0.317C0.268,-0.218 0.142,-0.124 0.018,-0.069C0.052,-0.038 0.101,0.022 0.126,0.06C0.234,-0.001 0.338,-0.092 0.422,-0.197L0.422,0.095L0.577,0.095L0.577,-0.205C0.661,-0.1 0.765,-0.007 0.873,0.053C0.898,0.013 0.947,-0.047 0.983,-0.077C0.86,-0.13 0.737,-0.22 0.653,-0.317L0.902,-0.317Z" style="fill-rule:nonzero;"/>
                </g>
                <g transform="matrix(27.625,0,0,27.625,287.95,4.40453)">
                    <path d="M0.406,-0.826L0.081,-0.826L0.081,-0.718L0.406,-0.718L0.406,-0.826ZM0.274,-0.154L0.274,-0.069L0.196,-0.069L0.196,-0.154L0.274,-0.154ZM0.401,-0.267L0.071,-0.267L0.071,0.08L0.196,0.08L0.196,0.044L0.401,0.044L0.401,-0.267ZM0.075,-0.3L0.404,-0.3L0.404,-0.408L0.075,-0.408L0.075,-0.3ZM0.075,-0.438L0.404,-0.438L0.404,-0.546L0.075,-0.546L0.075,-0.438ZM0.025,-0.576L0.444,-0.576L0.444,-0.689L0.025,-0.689L0.025,-0.576ZM0.676,-0.049C0.632,-0.049 0.625,-0.055 0.625,-0.1L0.625,-0.349L0.78,-0.349L0.78,-0.301L0.926,-0.301L0.926,-0.808L0.48,-0.808L0.48,-0.67L0.78,-0.67L0.78,-0.486L0.478,-0.486L0.478,-0.099C0.478,0.047 0.52,0.088 0.656,0.088L0.803,0.088C0.924,0.088 0.963,0.037 0.98,-0.132C0.94,-0.141 0.877,-0.166 0.846,-0.189C0.839,-0.071 0.832,-0.049 0.791,-0.049L0.676,-0.049Z" style="fill-rule:nonzero;"/>
                </g>
                <g transform="matrix(27.625,0,0,27.625,316.819,4.40453)">
                    <path d="M0.054,-0.258C0.067,-0.205 0.08,-0.136 0.082,-0.09L0.177,-0.116C0.172,-0.161 0.159,-0.228 0.144,-0.281L0.054,-0.258ZM0.168,-0.605C0.2,-0.644 0.226,-0.683 0.248,-0.72C0.282,-0.685 0.318,-0.642 0.343,-0.605L0.168,-0.605ZM0.862,-0.211C0.896,-0.241 0.938,-0.286 0.98,-0.33L0.867,-0.399C0.848,-0.366 0.817,-0.323 0.789,-0.29C0.776,-0.318 0.765,-0.346 0.757,-0.372L0.757,-0.41L0.963,-0.41L0.963,-0.532L0.893,-0.532L0.893,-0.825L0.473,-0.825L0.473,-0.707L0.759,-0.707L0.759,-0.672L0.496,-0.672L0.496,-0.563L0.759,-0.563L0.759,-0.532L0.427,-0.532L0.427,-0.41L0.623,-0.41L0.623,-0.127L0.591,-0.206C0.527,-0.166 0.462,-0.126 0.413,-0.099L0.412,-0.112L0.301,-0.093L0.301,-0.134L0.385,-0.112C0.398,-0.151 0.414,-0.209 0.432,-0.264L0.33,-0.288C0.325,-0.245 0.313,-0.185 0.301,-0.142L0.301,-0.309L0.416,-0.309L0.416,-0.431L0.301,-0.431L0.301,-0.485L0.398,-0.485L0.398,-0.605L0.388,-0.605L0.455,-0.686C0.419,-0.738 0.345,-0.807 0.287,-0.855L0.171,-0.855C0.141,-0.778 0.086,-0.688 0.005,-0.619C0.032,-0.6 0.073,-0.553 0.091,-0.524L0.096,-0.529L0.096,-0.485L0.177,-0.485L0.177,-0.431L0.051,-0.431L0.051,-0.309L0.177,-0.309L0.177,-0.073C0.126,-0.065 0.078,-0.057 0.039,-0.052L0.066,0.079C0.168,0.059 0.3,0.033 0.422,0.008L0.417,-0.047L0.46,0.028C0.512,-0.006 0.57,-0.048 0.623,-0.088L0.623,-0.041C0.623,-0.031 0.62,-0.028 0.61,-0.028C0.601,-0.028 0.573,-0.028 0.551,-0.029C0.566,0.007 0.581,0.059 0.584,0.095C0.639,0.095 0.681,0.093 0.715,0.073C0.75,0.053 0.757,0.019 0.757,-0.038L0.757,-0.112C0.793,-0.049 0.839,0.01 0.897,0.048C0.917,0.011 0.961,-0.045 0.99,-0.071C0.913,-0.109 0.856,-0.173 0.815,-0.242L0.862,-0.211ZM0.617,-0.263C0.599,-0.3 0.556,-0.351 0.517,-0.386L0.423,-0.325C0.46,-0.287 0.501,-0.233 0.516,-0.196L0.617,-0.263Z" style="fill-rule:nonzero;"/>
                </g>
            </g>
            <g transform="matrix(3.25794,0,0,3.68828,773.595,525.554)">
                <g transform="matrix(13.125,0,0,13.125,113.905,-5.62965)">
                    <path d="M0.785,-0.536C0.766,-0.468 0.742,-0.404 0.712,-0.344C0.7,-0.414 0.689,-0.491 0.681,-0.572L0.956,-0.572L0.956,-0.715L0.882,-0.715L0.935,-0.771C0.904,-0.801 0.84,-0.838 0.792,-0.86L0.705,-0.771C0.734,-0.756 0.767,-0.735 0.795,-0.715L0.672,-0.715C0.67,-0.761 0.67,-0.807 0.671,-0.852L0.515,-0.852C0.515,-0.807 0.516,-0.761 0.519,-0.715L0.046,-0.715L0.046,-0.572L0.528,-0.572C0.54,-0.424 0.563,-0.279 0.598,-0.163C0.569,-0.128 0.538,-0.096 0.504,-0.067L0.493,-0.185C0.334,-0.152 0.158,-0.119 0.042,-0.101L0.069,0.049C0.182,0.024 0.329,-0.006 0.467,-0.037C0.451,-0.025 0.435,-0.014 0.418,-0.004C0.451,0.021 0.51,0.078 0.533,0.107C0.578,0.074 0.621,0.036 0.661,-0.008C0.7,0.058 0.747,0.097 0.804,0.097C0.907,0.097 0.955,0.055 0.977,-0.143C0.936,-0.159 0.884,-0.195 0.852,-0.23C0.847,-0.108 0.836,-0.056 0.819,-0.056C0.802,-0.056 0.782,-0.087 0.764,-0.139C0.834,-0.244 0.891,-0.367 0.932,-0.502L0.785,-0.536ZM0.338,-0.32L0.22,-0.32L0.22,-0.402L0.338,-0.402L0.338,-0.32ZM0.088,-0.523L0.088,-0.199L0.479,-0.199L0.479,-0.523L0.088,-0.523Z" style="fill-rule:nonzero;"/>
                </g>
                <g transform="matrix(13.125,0,0,13.125,130.443,-5.62965)">
                    <path d="M0.282,-0.722L0.098,-0.724C0.105,-0.689 0.107,-0.647 0.107,-0.617C0.107,-0.554 0.108,-0.441 0.118,-0.347C0.146,-0.076 0.243,0.024 0.36,0.024C0.447,0.024 0.51,-0.038 0.579,-0.213L0.458,-0.361C0.444,-0.294 0.409,-0.17 0.363,-0.17C0.306,-0.17 0.286,-0.261 0.274,-0.391C0.268,-0.457 0.268,-0.522 0.268,-0.587C0.268,-0.616 0.274,-0.68 0.282,-0.722ZM0.766,-0.703L0.613,-0.653C0.729,-0.527 0.777,-0.274 0.791,-0.125L0.95,-0.186C0.942,-0.329 0.863,-0.589 0.766,-0.703Z" style="fill-rule:nonzero;"/>
                </g>
                <g transform="matrix(13.125,0,0,13.125,146.98,-5.62965)">
                    <path d="M0.136,-0.788C0.135,-0.751 0.129,-0.706 0.125,-0.676C0.114,-0.603 0.086,-0.417 0.086,-0.265C0.086,-0.131 0.106,-0.015 0.127,0.052L0.262,0.043C0.261,0.027 0.261,0.009 0.261,-0.002C0.261,-0.012 0.264,-0.035 0.267,-0.049C0.279,-0.106 0.309,-0.206 0.339,-0.295L0.266,-0.353C0.253,-0.324 0.241,-0.305 0.229,-0.276C0.228,-0.28 0.228,-0.296 0.228,-0.299C0.228,-0.391 0.262,-0.622 0.274,-0.673C0.278,-0.691 0.292,-0.752 0.301,-0.774L0.136,-0.788ZM0.633,-0.173C0.633,-0.119 0.614,-0.093 0.566,-0.093C0.524,-0.093 0.489,-0.105 0.489,-0.14C0.489,-0.171 0.52,-0.189 0.566,-0.189C0.589,-0.189 0.611,-0.186 0.633,-0.18L0.633,-0.173ZM0.971,-0.138C0.927,-0.179 0.866,-0.231 0.781,-0.266C0.778,-0.324 0.773,-0.395 0.771,-0.485C0.823,-0.489 0.872,-0.495 0.916,-0.501L0.916,-0.65C0.871,-0.641 0.822,-0.633 0.772,-0.628C0.773,-0.669 0.774,-0.702 0.775,-0.721C0.776,-0.743 0.778,-0.768 0.781,-0.787L0.61,-0.787C0.614,-0.766 0.618,-0.734 0.618,-0.719C0.619,-0.701 0.619,-0.664 0.62,-0.618C0.601,-0.617 0.583,-0.617 0.564,-0.617C0.504,-0.617 0.445,-0.62 0.387,-0.626L0.388,-0.483C0.447,-0.479 0.506,-0.477 0.565,-0.477C0.583,-0.477 0.602,-0.477 0.621,-0.478C0.622,-0.416 0.625,-0.355 0.628,-0.303C0.612,-0.304 0.595,-0.305 0.578,-0.305C0.44,-0.305 0.349,-0.234 0.349,-0.123C0.349,-0.011 0.441,0.049 0.58,0.049C0.71,0.049 0.771,-0.009 0.784,-0.102C0.818,-0.077 0.853,-0.047 0.89,-0.012L0.971,-0.138Z" style="fill-rule:nonzero;"/>
                </g>
                <g transform="matrix(13.125,0,0,13.125,113.905,7.70369)">
                    <path d="M0.291,-0.13L0.291,-0.325L0.706,-0.325L0.706,-0.13L0.291,-0.13ZM0.706,-0.652L0.706,-0.469L0.291,-0.469L0.291,-0.652L0.706,-0.652ZM0.141,-0.799L0.141,0.083L0.291,0.083L0.291,0.017L0.706,0.017L0.706,0.083L0.863,0.083L0.863,-0.799L0.141,-0.799Z" style="fill-rule:nonzero;"/>
                </g>
                <g transform="matrix(13.125,0,0,13.125,130.443,7.70369)">
                    <path d="M0.406,-0.826L0.081,-0.826L0.081,-0.718L0.406,-0.718L0.406,-0.826ZM0.274,-0.154L0.274,-0.069L0.196,-0.069L0.196,-0.154L0.274,-0.154ZM0.401,-0.267L0.071,-0.267L0.071,0.08L0.196,0.08L0.196,0.044L0.401,0.044L0.401,-0.267ZM0.075,-0.3L0.404,-0.3L0.404,-0.408L0.075,-0.408L0.075,-0.3ZM0.075,-0.438L0.404,-0.438L0.404,-0.546L0.075,-0.546L0.075,-0.438ZM0.025,-0.576L0.444,-0.576L0.444,-0.689L0.025,-0.689L0.025,-0.576ZM0.676,-0.049C0.632,-0.049 0.625,-0.055 0.625,-0.1L0.625,-0.349L0.78,-0.349L0.78,-0.301L0.926,-0.301L0.926,-0.808L0.48,-0.808L0.48,-0.67L0.78,-0.67L0.78,-0.486L0.478,-0.486L0.478,-0.099C0.478,0.047 0.52,0.088 0.656,0.088L0.803,0.088C0.924,0.088 0.963,0.037 0.98,-0.132C0.94,-0.141 0.877,-0.166 0.846,-0.189C0.839,-0.071 0.832,-0.049 0.791,-0.049L0.676,-0.049Z" style="fill-rule:nonzero;"/>
                </g>
                <g transform="matrix(13.125,0,0,13.125,146.98,7.70369)">
                    <path d="M0.197,-0.134L0.197,-0.306L0.328,-0.306L0.328,-0.134L0.197,-0.134ZM0.328,-0.431L0.197,-0.431L0.197,-0.566L0.328,-0.566L0.328,-0.431ZM0.68,-0.702C0.694,-0.741 0.707,-0.78 0.718,-0.819L0.578,-0.852C0.552,-0.748 0.509,-0.64 0.459,-0.559L0.459,-0.692L0.311,-0.692C0.327,-0.734 0.344,-0.784 0.361,-0.833L0.202,-0.855C0.199,-0.806 0.19,-0.743 0.18,-0.692L0.066,-0.692L0.066,0.064L0.197,0.064L0.197,-0.007L0.459,-0.007L0.459,-0.483C0.489,-0.463 0.523,-0.437 0.541,-0.421C0.57,-0.462 0.599,-0.513 0.626,-0.57L0.816,-0.57C0.808,-0.24 0.796,-0.093 0.767,-0.062C0.754,-0.048 0.743,-0.044 0.723,-0.044C0.696,-0.044 0.636,-0.044 0.572,-0.05C0.598,-0.01 0.618,0.052 0.62,0.091C0.68,0.093 0.742,0.094 0.782,0.087C0.826,0.079 0.857,0.067 0.888,0.023C0.93,-0.032 0.94,-0.194 0.952,-0.639C0.953,-0.656 0.953,-0.702 0.953,-0.702L0.68,-0.702ZM0.781,-0.239C0.751,-0.298 0.686,-0.393 0.641,-0.461L0.527,-0.397C0.572,-0.323 0.632,-0.225 0.658,-0.164L0.781,-0.239Z" style="fill-rule:nonzero;"/>
                </g>
                <g transform="matrix(13.125,0,0,13.125,163.518,7.70369)">
                    <path d="M0.954,-0.558C0.901,-0.595 0.773,-0.663 0.702,-0.694L0.625,-0.575C0.694,-0.545 0.81,-0.478 0.869,-0.432L0.954,-0.558ZM0.572,-0.712C0.539,-0.702 0.497,-0.692 0.451,-0.683C0.465,-0.733 0.476,-0.778 0.483,-0.809L0.319,-0.825C0.317,-0.774 0.308,-0.717 0.294,-0.663C0.268,-0.661 0.243,-0.66 0.217,-0.66C0.184,-0.66 0.125,-0.662 0.079,-0.667L0.09,-0.529C0.136,-0.526 0.176,-0.525 0.218,-0.525C0.228,-0.525 0.239,-0.525 0.25,-0.526C0.207,-0.423 0.131,-0.284 0.053,-0.187L0.198,-0.114C0.278,-0.229 0.362,-0.401 0.408,-0.54C0.475,-0.55 0.535,-0.563 0.576,-0.574L0.572,-0.712ZM0.58,-0.161C0.58,-0.106 0.562,-0.071 0.503,-0.071C0.461,-0.071 0.434,-0.093 0.434,-0.125C0.434,-0.153 0.464,-0.173 0.513,-0.173C0.536,-0.173 0.559,-0.17 0.58,-0.166L0.58,-0.161ZM0.564,-0.499C0.567,-0.443 0.571,-0.362 0.575,-0.291C0.558,-0.293 0.541,-0.294 0.523,-0.294C0.37,-0.294 0.292,-0.209 0.292,-0.11C0.292,0.005 0.394,0.066 0.525,0.066C0.671,0.066 0.723,-0.005 0.726,-0.1C0.775,-0.066 0.815,-0.028 0.846,0.001L0.925,-0.128C0.876,-0.174 0.806,-0.224 0.72,-0.257C0.718,-0.298 0.716,-0.337 0.715,-0.36C0.714,-0.409 0.712,-0.456 0.715,-0.499L0.564,-0.499Z" style="fill-rule:nonzero;"/>
                </g>
                <g transform="matrix(13.125,0,0,13.125,180.055,7.70369)">
                    <path d="M0.572,-0.422L0.572,-0.296L0.496,-0.296L0.496,-0.422L0.572,-0.422ZM0.706,-0.172L0.706,-0.546L0.36,-0.546L0.36,-0.109L0.496,-0.109L0.496,-0.172L0.706,-0.172ZM0.975,-0.775L0.359,-0.775C0.364,-0.788 0.369,-0.801 0.374,-0.814L0.238,-0.858C0.189,-0.722 0.104,-0.585 0.017,-0.5C0.041,-0.463 0.08,-0.382 0.092,-0.347C0.112,-0.367 0.131,-0.389 0.15,-0.413L0.15,0.092L0.295,0.092L0.295,-0.639C0.318,-0.683 0.34,-0.729 0.358,-0.774L0.358,-0.636L0.776,-0.636L0.776,-0.07C0.776,-0.052 0.769,-0.047 0.75,-0.047C0.73,-0.047 0.663,-0.047 0.606,-0.05C0.626,-0.009 0.649,0.056 0.654,0.097C0.744,0.098 0.813,0.093 0.86,0.071C0.907,0.048 0.922,0.01 0.922,-0.068L0.922,-0.636L0.975,-0.636L0.975,-0.775Z" style="fill-rule:nonzero;"/>
                </g>
                <g transform="matrix(13.125,0,0,13.125,196.593,7.70369)">
                    <path d="M0.297,-0.811C0.299,-0.75 0.292,-0.681 0.278,-0.604C0.234,-0.601 0.193,-0.598 0.164,-0.597C0.125,-0.596 0.087,-0.594 0.049,-0.597L0.062,-0.436C0.095,-0.442 0.152,-0.45 0.184,-0.454C0.198,-0.456 0.22,-0.459 0.246,-0.463C0.209,-0.328 0.145,-0.143 0.051,-0.016L0.208,0.047C0.292,-0.089 0.366,-0.327 0.406,-0.481C0.424,-0.482 0.441,-0.483 0.452,-0.483C0.514,-0.483 0.544,-0.474 0.544,-0.402C0.544,-0.31 0.532,-0.197 0.507,-0.148C0.494,-0.121 0.471,-0.11 0.44,-0.11C0.415,-0.11 0.355,-0.121 0.319,-0.131L0.345,0.027C0.38,0.035 0.427,0.041 0.465,0.041C0.546,0.041 0.604,0.016 0.638,-0.055C0.68,-0.143 0.693,-0.302 0.693,-0.418C0.693,-0.566 0.618,-0.62 0.504,-0.62C0.486,-0.62 0.463,-0.619 0.437,-0.617C0.443,-0.643 0.449,-0.67 0.454,-0.697C0.46,-0.725 0.468,-0.762 0.475,-0.792L0.297,-0.811ZM0.672,-0.647C0.744,-0.555 0.81,-0.374 0.834,-0.259L0.987,-0.33C0.958,-0.426 0.877,-0.618 0.817,-0.707L0.672,-0.647Z" style="fill-rule:nonzero;"/>
                </g>
            </g>
            <g transform="matrix(3.25794,0,0,3.68828,917.678,498.386)">
                <text x="-87.319px" y="-26.515px" style="font-family:'SourceHanCodeJP-ExtraLight', 'Source Han Code JP', sans-serif;font-weight:250;font-size:17.292px;fill:rgb(127,127,127);">ト<tspan x="-69.024px -50.73px -32.435px -14.141px " y="-26.515px -26.515px -26.515px -26.515px ">ライアル</tspan></text>
                <text x="10.498px" y="-26.515px" style="font-family:'SourceHanCodeJP-ExtraLight', 'Source Han Code JP', sans-serif;font-weight:250;font-size:17.292px;fill:rgb(127,127,127);">ア<tspan x="28.792px 47.087px " y="-26.515px -26.515px ">ンド</tspan></text>
                <text x="71.725px" y="-26.515px" style="font-family:'SourceHanCodeJP-ExtraLight', 'Source Han Code JP', sans-serif;font-weight:250;font-size:17.292px;fill:rgb(127,127,127);">ス<tspan x="90.02px 108.314px 126.609px 144.904px " y="-26.515px -26.515px -26.515px -26.515px ">パイラル</tspan></text>
            </g>
            <g transform="matrix(2.1051,0,0,2.38317,-127.563,-17.2397)">
                <g transform="matrix(0.027231,0,0,0.027231,134.19,35.0041)">
                    <circle cx="1537.18" cy="1462.9" r="1342.53" style="fill:white;"/>
                </g>
                <g transform="matrix(0.0410803,0,0,0.0410803,113.545,19.4963)">
                    <path d="M1521.51,512.909L2244.04,930.062L2244.04,1764.37L1521.51,2181.52L798.982,1764.37L798.982,930.062L1521.51,512.909Z" style="fill:white;"/>
                    <path d="M2244.04,930.062L2244.04,1764.37L1521.51,2181.52L798.982,1764.37L798.982,930.062L1521.51,512.909L2244.04,930.062ZM938.05,1010.35L938.05,1684.08L1521.51,2020.94L2104.97,1684.08L2104.97,1010.35L1521.51,673.491L938.05,1010.35Z"/>
                </g>
                <g transform="matrix(0.0308102,0,0,0.0308102,129.171,33.3323)">
                    <path d="M2244.04,930.062L2244.04,1764.37L1521.51,2181.52L798.982,1764.37L798.982,930.062L1521.51,512.909L2244.04,930.062ZM910.223,994.287L910.223,1700.14L1521.51,2053.07L2132.8,1700.14L2132.8,994.287L1521.51,641.358L910.223,994.287Z" style="fill-opacity:0.9;"/>
                </g>
                <g transform="matrix(0.0170992,-0.0170992,0.0170992,0.0170992,130.299,77.5603)">
                    <g>
                        <g>
                            <g transform="matrix(1.14744,0,0,1.69328,-129.392,759.563)">
                                <rect x="869.326" y="533.438" width="957.281" height="83.664" style="fill:white;"/>
                                <rect x="869.326" y="533.438" width="957.281" height="83.664"/>
                            </g>
                            <g transform="matrix(0.573721,-1.11704e-32,1.87992e-16,1.83524,369.359,677.9)">
                                <rect x="869.326" y="533.438" width="957.281" height="83.664" style="fill:white;"/>
                            </g>
                            <g transform="matrix(0.0822127,-0.0822127,2.14285,2.14285,23.4945,553.555)">
                                <rect x="869.326" y="533.438" width="957.281" height="83.664"/>
                            </g>
                            <g transform="matrix(0.573721,1.11022e-16,3.33067e-16,1.83524,572.976,530.245)">
                                <rect x="869.326" y="533.438" width="957.281" height="83.664" style="fill:white;"/>
                            </g>
                            <g transform="matrix(7.02606e-17,-1.14744,1.69328,1.03683e-16,-35.1487,2801.99)">
                                <rect x="869.326" y="533.438" width="957.281" height="83.664"/>
                            </g>
                            <g transform="matrix(7.02606e-17,-1.14744,1.69328,1.03683e-16,921.61,2801.99)">
                                <rect x="869.326" y="533.438" width="957.281" height="83.664"/>
                            </g>
                            <g transform="matrix(1.14744,0,0,1.69328,-129.392,-197.195)">
                                <rect x="869.326" y="533.438" width="957.281" height="83.664"/>
                            </g>
                            <g transform="matrix(0.172277,-0.172277,0.489563,0.489563,548.758,1702.43)">
                                <rect x="869.326" y="533.438" width="957.281" height="83.664" style="fill:white;"/>
                            </g>
                        </g>
                        <g transform="matrix(0.99093,-0.99093,1.19733,1.19733,-607.205,1902.23)">
                            <rect x="869.326" y="533.438" width="957.281" height="83.664"/>
                        </g>
                        <g transform="matrix(0.512475,0.512475,-1.19733,1.19733,1186.3,-353.318)">
                            <rect x="869.326" y="533.438" width="957.281" height="83.664"/>
                        </g>
                        <g transform="matrix(0.386271,0.386271,-1.19733,1.19733,1890.09,108.667)">
                            <rect x="869.326" y="533.438" width="957.281" height="83.664"/>
                        </g>
                        <g transform="matrix(0.375939,0.375939,-1.19733,1.19733,1657.04,360.399)">
                            <rect x="869.326" y="533.438" width="957.281" height="83.664"/>
                        </g>
                        <g transform="matrix(0.557972,-1.11022e-16,1.11022e-16,0.557972,641.543,426.242)">
                            <rect x="1137.29" y="1232.73" width="506.141" height="506.141" style="fill:white;stroke:black;stroke-width:253.9px;stroke-linecap:square;stroke-linejoin:miter;stroke-miterlimit:1.5;"/>
                        </g>
                    </g>
                </g>
            </g>
        </g>
    </g>
</svg>
